<mxfile host="app.diagrams.net" modified="2022-01-20T19:32:43.032Z" agent="5.0 (Windows NT 10.0; Win64; x64) AppleWebKit/537.36 (KHTML, like Gecko) Chrome/97.0.4692.71 Safari/537.36" etag="v2xHemHVpniP-GgHfcjj" version="16.4.3" type="github">
  <diagram id="LkDzFpfbwSy2pH1ypYPq" name="Page-1">
    <mxGraphModel dx="1038" dy="543" grid="1" gridSize="10" guides="1" tooltips="1" connect="1" arrows="1" fold="1" page="1" pageScale="1" pageWidth="850" pageHeight="1100" math="0" shadow="0">
      <root>
        <mxCell id="0" />
        <mxCell id="1" parent="0" />
        <mxCell id="v1i57e1MyZaDkJ1OwCc9-1" value="" style="edgeStyle=orthogonalEdgeStyle;rounded=0;orthogonalLoop=1;jettySize=auto;html=1;fillColor=#dae8fc;strokeColor=#6c8ebf;" edge="1" parent="1" source="v1i57e1MyZaDkJ1OwCc9-3" target="v1i57e1MyZaDkJ1OwCc9-7">
          <mxGeometry relative="1" as="geometry" />
        </mxCell>
        <mxCell id="v1i57e1MyZaDkJ1OwCc9-2" value="" style="edgeStyle=orthogonalEdgeStyle;rounded=0;orthogonalLoop=1;jettySize=auto;html=1;" edge="1" parent="1" source="v1i57e1MyZaDkJ1OwCc9-3" target="v1i57e1MyZaDkJ1OwCc9-11">
          <mxGeometry relative="1" as="geometry" />
        </mxCell>
        <mxCell id="v1i57e1MyZaDkJ1OwCc9-3" value="Movie making Initiation" style="rounded=0;whiteSpace=wrap;html=1;fillColor=#dae8fc;strokeColor=#6c8ebf;" vertex="1" parent="1">
          <mxGeometry x="40" y="200" width="120" height="60" as="geometry" />
        </mxCell>
        <mxCell id="v1i57e1MyZaDkJ1OwCc9-4" value="" style="edgeStyle=orthogonalEdgeStyle;rounded=0;orthogonalLoop=1;jettySize=auto;html=1;" edge="1" parent="1" source="v1i57e1MyZaDkJ1OwCc9-7" target="v1i57e1MyZaDkJ1OwCc9-10">
          <mxGeometry relative="1" as="geometry" />
        </mxCell>
        <mxCell id="v1i57e1MyZaDkJ1OwCc9-5" value="" style="edgeStyle=orthogonalEdgeStyle;rounded=0;orthogonalLoop=1;jettySize=auto;html=1;" edge="1" parent="1" source="v1i57e1MyZaDkJ1OwCc9-7" target="v1i57e1MyZaDkJ1OwCc9-13">
          <mxGeometry relative="1" as="geometry" />
        </mxCell>
        <mxCell id="v1i57e1MyZaDkJ1OwCc9-6" value="" style="edgeStyle=orthogonalEdgeStyle;rounded=0;orthogonalLoop=1;jettySize=auto;html=1;fillColor=#dae8fc;strokeColor=#6c8ebf;" edge="1" parent="1" source="v1i57e1MyZaDkJ1OwCc9-7" target="v1i57e1MyZaDkJ1OwCc9-10">
          <mxGeometry relative="1" as="geometry" />
        </mxCell>
        <mxCell id="v1i57e1MyZaDkJ1OwCc9-7" value="Requirement&lt;br&gt;Planning" style="rounded=0;whiteSpace=wrap;html=1;fillColor=#dae8fc;strokeColor=#6c8ebf;" vertex="1" parent="1">
          <mxGeometry x="200" y="200" width="120" height="60" as="geometry" />
        </mxCell>
        <mxCell id="v1i57e1MyZaDkJ1OwCc9-8" value="" style="edgeStyle=orthogonalEdgeStyle;rounded=0;orthogonalLoop=1;jettySize=auto;html=1;" edge="1" parent="1" source="v1i57e1MyZaDkJ1OwCc9-10" target="v1i57e1MyZaDkJ1OwCc9-18">
          <mxGeometry relative="1" as="geometry" />
        </mxCell>
        <mxCell id="v1i57e1MyZaDkJ1OwCc9-9" value="" style="edgeStyle=orthogonalEdgeStyle;rounded=0;orthogonalLoop=1;jettySize=auto;html=1;fillColor=#dae8fc;strokeColor=#6c8ebf;" edge="1" parent="1" source="v1i57e1MyZaDkJ1OwCc9-10" target="v1i57e1MyZaDkJ1OwCc9-25">
          <mxGeometry relative="1" as="geometry" />
        </mxCell>
        <mxCell id="v1i57e1MyZaDkJ1OwCc9-10" value="Design" style="rounded=0;whiteSpace=wrap;html=1;fillColor=#dae8fc;strokeColor=#6c8ebf;" vertex="1" parent="1">
          <mxGeometry x="360" y="200" width="120" height="60" as="geometry" />
        </mxCell>
        <mxCell id="v1i57e1MyZaDkJ1OwCc9-11" value="Estimating the budget by analyzing the expenditures" style="shape=document;whiteSpace=wrap;html=1;boundedLbl=1;" vertex="1" parent="1">
          <mxGeometry x="40" y="310" width="120" height="90" as="geometry" />
        </mxCell>
        <mxCell id="v1i57e1MyZaDkJ1OwCc9-12" value="" style="edgeStyle=orthogonalEdgeStyle;rounded=0;orthogonalLoop=1;jettySize=auto;html=1;" edge="1" parent="1" source="v1i57e1MyZaDkJ1OwCc9-13" target="v1i57e1MyZaDkJ1OwCc9-15">
          <mxGeometry relative="1" as="geometry" />
        </mxCell>
        <mxCell id="v1i57e1MyZaDkJ1OwCc9-13" value="Functional Requirements:&lt;br&gt;Water, electricity, studio" style="shape=document;whiteSpace=wrap;html=1;boundedLbl=1;rounded=0;" vertex="1" parent="1">
          <mxGeometry x="190" y="315" width="140" height="80" as="geometry" />
        </mxCell>
        <mxCell id="v1i57e1MyZaDkJ1OwCc9-14" value="" style="edgeStyle=orthogonalEdgeStyle;rounded=0;orthogonalLoop=1;jettySize=auto;html=1;" edge="1" parent="1" source="v1i57e1MyZaDkJ1OwCc9-15" target="v1i57e1MyZaDkJ1OwCc9-16">
          <mxGeometry relative="1" as="geometry" />
        </mxCell>
        <mxCell id="v1i57e1MyZaDkJ1OwCc9-15" value="Technical Requirements:&lt;br&gt;Actors, script, direction team, camera team, sound team, makeup team&amp;nbsp;" style="shape=document;whiteSpace=wrap;html=1;boundedLbl=1;rounded=0;" vertex="1" parent="1">
          <mxGeometry x="190" y="420" width="140" height="110" as="geometry" />
        </mxCell>
        <mxCell id="v1i57e1MyZaDkJ1OwCc9-16" value="Approval from MCD regarding area under construction and floors to be built" style="shape=document;whiteSpace=wrap;html=1;boundedLbl=1;rounded=0;" vertex="1" parent="1">
          <mxGeometry x="190" y="555" width="140" height="80" as="geometry" />
        </mxCell>
        <mxCell id="v1i57e1MyZaDkJ1OwCc9-17" value="" style="edgeStyle=orthogonalEdgeStyle;rounded=0;orthogonalLoop=1;jettySize=auto;html=1;" edge="1" parent="1" source="v1i57e1MyZaDkJ1OwCc9-18" target="v1i57e1MyZaDkJ1OwCc9-20">
          <mxGeometry relative="1" as="geometry" />
        </mxCell>
        <mxCell id="v1i57e1MyZaDkJ1OwCc9-18" value="Finalizing the script" style="shape=document;whiteSpace=wrap;html=1;boundedLbl=1;rounded=0;" vertex="1" parent="1">
          <mxGeometry x="360" y="310" width="120" height="80" as="geometry" />
        </mxCell>
        <mxCell id="v1i57e1MyZaDkJ1OwCc9-19" value="" style="edgeStyle=orthogonalEdgeStyle;rounded=0;orthogonalLoop=1;jettySize=auto;html=1;" edge="1" parent="1" source="v1i57e1MyZaDkJ1OwCc9-20" target="v1i57e1MyZaDkJ1OwCc9-22">
          <mxGeometry relative="1" as="geometry" />
        </mxCell>
        <mxCell id="v1i57e1MyZaDkJ1OwCc9-20" value="Dialogues of each actor per scene" style="shape=document;whiteSpace=wrap;html=1;boundedLbl=1;rounded=0;" vertex="1" parent="1">
          <mxGeometry x="360" y="420" width="120" height="80" as="geometry" />
        </mxCell>
        <mxCell id="v1i57e1MyZaDkJ1OwCc9-21" value="" style="edgeStyle=orthogonalEdgeStyle;rounded=0;orthogonalLoop=1;jettySize=auto;html=1;" edge="1" parent="1" source="v1i57e1MyZaDkJ1OwCc9-22" target="v1i57e1MyZaDkJ1OwCc9-38">
          <mxGeometry relative="1" as="geometry" />
        </mxCell>
        <mxCell id="v1i57e1MyZaDkJ1OwCc9-22" value="Studio preparing plan" style="shape=document;whiteSpace=wrap;html=1;boundedLbl=1;rounded=0;" vertex="1" parent="1">
          <mxGeometry x="360" y="530" width="120" height="80" as="geometry" />
        </mxCell>
        <mxCell id="v1i57e1MyZaDkJ1OwCc9-23" value="" style="edgeStyle=orthogonalEdgeStyle;rounded=0;orthogonalLoop=1;jettySize=auto;html=1;" edge="1" parent="1" source="v1i57e1MyZaDkJ1OwCc9-25" target="v1i57e1MyZaDkJ1OwCc9-27">
          <mxGeometry relative="1" as="geometry" />
        </mxCell>
        <mxCell id="v1i57e1MyZaDkJ1OwCc9-24" value="" style="edgeStyle=orthogonalEdgeStyle;rounded=0;orthogonalLoop=1;jettySize=auto;html=1;fillColor=#dae8fc;strokeColor=#6c8ebf;" edge="1" parent="1" source="v1i57e1MyZaDkJ1OwCc9-25" target="v1i57e1MyZaDkJ1OwCc9-34">
          <mxGeometry relative="1" as="geometry" />
        </mxCell>
        <mxCell id="v1i57e1MyZaDkJ1OwCc9-25" value="Film making" style="rounded=0;whiteSpace=wrap;html=1;fillColor=#dae8fc;strokeColor=#6c8ebf;" vertex="1" parent="1">
          <mxGeometry x="524.5" y="200" width="120" height="60" as="geometry" />
        </mxCell>
        <mxCell id="v1i57e1MyZaDkJ1OwCc9-26" value="" style="edgeStyle=orthogonalEdgeStyle;rounded=0;orthogonalLoop=1;jettySize=auto;html=1;" edge="1" parent="1" source="v1i57e1MyZaDkJ1OwCc9-27" target="v1i57e1MyZaDkJ1OwCc9-29">
          <mxGeometry relative="1" as="geometry" />
        </mxCell>
        <mxCell id="v1i57e1MyZaDkJ1OwCc9-27" value="Setting up the studio/place to record" style="shape=document;whiteSpace=wrap;html=1;boundedLbl=1;rounded=0;" vertex="1" parent="1">
          <mxGeometry x="525" y="310" width="120" height="80" as="geometry" />
        </mxCell>
        <mxCell id="v1i57e1MyZaDkJ1OwCc9-28" value="" style="edgeStyle=orthogonalEdgeStyle;rounded=0;orthogonalLoop=1;jettySize=auto;html=1;" edge="1" parent="1" source="v1i57e1MyZaDkJ1OwCc9-29" target="v1i57e1MyZaDkJ1OwCc9-31">
          <mxGeometry relative="1" as="geometry" />
        </mxCell>
        <mxCell id="v1i57e1MyZaDkJ1OwCc9-29" value="Recording the actors" style="shape=document;whiteSpace=wrap;html=1;boundedLbl=1;rounded=0;" vertex="1" parent="1">
          <mxGeometry x="525" y="414" width="120" height="80" as="geometry" />
        </mxCell>
        <mxCell id="v1i57e1MyZaDkJ1OwCc9-31" value="Retakes in case of disturbances" style="shape=document;whiteSpace=wrap;html=1;boundedLbl=1;rounded=0;" vertex="1" parent="1">
          <mxGeometry x="525" y="530" width="120" height="80" as="geometry" />
        </mxCell>
        <mxCell id="v1i57e1MyZaDkJ1OwCc9-32" value="" style="edgeStyle=orthogonalEdgeStyle;rounded=0;orthogonalLoop=1;jettySize=auto;html=1;" edge="1" parent="1" source="v1i57e1MyZaDkJ1OwCc9-34" target="v1i57e1MyZaDkJ1OwCc9-36">
          <mxGeometry relative="1" as="geometry" />
        </mxCell>
        <mxCell id="v1i57e1MyZaDkJ1OwCc9-33" value="" style="edgeStyle=orthogonalEdgeStyle;rounded=0;orthogonalLoop=1;jettySize=auto;html=1;fillColor=#dae8fc;strokeColor=#6c8ebf;" edge="1" parent="1" source="v1i57e1MyZaDkJ1OwCc9-34" target="v1i57e1MyZaDkJ1OwCc9-42">
          <mxGeometry relative="1" as="geometry" />
        </mxCell>
        <mxCell id="v1i57e1MyZaDkJ1OwCc9-34" value="Testing&amp;nbsp;" style="rounded=0;whiteSpace=wrap;html=1;fillColor=#dae8fc;strokeColor=#6c8ebf;" vertex="1" parent="1">
          <mxGeometry x="680" y="200" width="120" height="60" as="geometry" />
        </mxCell>
        <mxCell id="v1i57e1MyZaDkJ1OwCc9-36" value="Testing the quality and content of the movie and getting it approved" style="shape=document;whiteSpace=wrap;html=1;boundedLbl=1;rounded=0;" vertex="1" parent="1">
          <mxGeometry x="680" y="310" width="120" height="90" as="geometry" />
        </mxCell>
        <mxCell id="v1i57e1MyZaDkJ1OwCc9-38" value="Movie editing plan" style="shape=document;whiteSpace=wrap;html=1;boundedLbl=1;rounded=0;" vertex="1" parent="1">
          <mxGeometry x="360" y="640" width="120" height="80" as="geometry" />
        </mxCell>
        <mxCell id="v1i57e1MyZaDkJ1OwCc9-40" value="" style="edgeStyle=orthogonalEdgeStyle;rounded=0;orthogonalLoop=1;jettySize=auto;html=1;" edge="1" parent="1" source="v1i57e1MyZaDkJ1OwCc9-42" target="v1i57e1MyZaDkJ1OwCc9-44">
          <mxGeometry relative="1" as="geometry" />
        </mxCell>
        <mxCell id="v1i57e1MyZaDkJ1OwCc9-41" value="" style="edgeStyle=orthogonalEdgeStyle;rounded=0;orthogonalLoop=1;jettySize=auto;html=1;fillColor=#dae8fc;strokeColor=#6c8ebf;" edge="1" parent="1" source="v1i57e1MyZaDkJ1OwCc9-42" target="v1i57e1MyZaDkJ1OwCc9-47">
          <mxGeometry relative="1" as="geometry" />
        </mxCell>
        <mxCell id="v1i57e1MyZaDkJ1OwCc9-42" value="Movie release" style="whiteSpace=wrap;html=1;rounded=0;fillColor=#dae8fc;strokeColor=#6c8ebf;" vertex="1" parent="1">
          <mxGeometry x="840" y="200" width="120" height="60" as="geometry" />
        </mxCell>
        <mxCell id="v1i57e1MyZaDkJ1OwCc9-43" value="" style="edgeStyle=orthogonalEdgeStyle;rounded=0;orthogonalLoop=1;jettySize=auto;html=1;" edge="1" parent="1" source="v1i57e1MyZaDkJ1OwCc9-44" target="v1i57e1MyZaDkJ1OwCc9-45">
          <mxGeometry relative="1" as="geometry" />
        </mxCell>
        <mxCell id="v1i57e1MyZaDkJ1OwCc9-44" value="Releasing the movie in cinema halls" style="shape=document;whiteSpace=wrap;html=1;boundedLbl=1;rounded=0;" vertex="1" parent="1">
          <mxGeometry x="840" y="310" width="120" height="80" as="geometry" />
        </mxCell>
        <mxCell id="v1i57e1MyZaDkJ1OwCc9-45" value="Releasing the movie on line/ on air" style="shape=document;whiteSpace=wrap;html=1;boundedLbl=1;rounded=0;" vertex="1" parent="1">
          <mxGeometry x="840" y="414" width="120" height="86" as="geometry" />
        </mxCell>
        <mxCell id="v1i57e1MyZaDkJ1OwCc9-46" value="" style="edgeStyle=orthogonalEdgeStyle;rounded=0;orthogonalLoop=1;jettySize=auto;html=1;" edge="1" parent="1" source="v1i57e1MyZaDkJ1OwCc9-47" target="v1i57e1MyZaDkJ1OwCc9-49">
          <mxGeometry relative="1" as="geometry" />
        </mxCell>
        <mxCell id="v1i57e1MyZaDkJ1OwCc9-47" value="Enhancement" style="whiteSpace=wrap;html=1;rounded=0;fillColor=#dae8fc;strokeColor=#6c8ebf;" vertex="1" parent="1">
          <mxGeometry x="1000" y="200" width="120" height="60" as="geometry" />
        </mxCell>
        <mxCell id="v1i57e1MyZaDkJ1OwCc9-48" value="" style="edgeStyle=orthogonalEdgeStyle;rounded=0;orthogonalLoop=1;jettySize=auto;html=1;" edge="1" parent="1" source="v1i57e1MyZaDkJ1OwCc9-49" target="v1i57e1MyZaDkJ1OwCc9-50">
          <mxGeometry relative="1" as="geometry" />
        </mxCell>
        <mxCell id="v1i57e1MyZaDkJ1OwCc9-49" value="Publicity of the movie" style="shape=document;whiteSpace=wrap;html=1;boundedLbl=1;rounded=0;" vertex="1" parent="1">
          <mxGeometry x="1000" y="315" width="120" height="80" as="geometry" />
        </mxCell>
        <mxCell id="v1i57e1MyZaDkJ1OwCc9-50" value="Feedback" style="shape=document;whiteSpace=wrap;html=1;boundedLbl=1;rounded=0;" vertex="1" parent="1">
          <mxGeometry x="1000" y="414" width="120" height="80" as="geometry" />
        </mxCell>
        <mxCell id="v1i57e1MyZaDkJ1OwCc9-51" value="Phase 1&lt;br&gt;Formation" style="text;html=1;strokeColor=none;fillColor=none;align=center;verticalAlign=middle;whiteSpace=wrap;rounded=0;" vertex="1" parent="1">
          <mxGeometry x="70" y="130" width="60" height="30" as="geometry" />
        </mxCell>
        <mxCell id="v1i57e1MyZaDkJ1OwCc9-52" value="Phase 2&lt;br&gt;Requirement/ Planning" style="text;html=1;strokeColor=none;fillColor=none;align=center;verticalAlign=middle;whiteSpace=wrap;rounded=0;" vertex="1" parent="1">
          <mxGeometry x="230" y="130" width="60" height="30" as="geometry" />
        </mxCell>
        <mxCell id="v1i57e1MyZaDkJ1OwCc9-53" value="Phase 3&lt;br&gt;Design" style="text;html=1;strokeColor=none;fillColor=none;align=center;verticalAlign=middle;whiteSpace=wrap;rounded=0;" vertex="1" parent="1">
          <mxGeometry x="390" y="130" width="60" height="30" as="geometry" />
        </mxCell>
        <mxCell id="v1i57e1MyZaDkJ1OwCc9-54" value="Phase 4&lt;br&gt;Construct" style="text;html=1;strokeColor=none;fillColor=none;align=center;verticalAlign=middle;whiteSpace=wrap;rounded=0;" vertex="1" parent="1">
          <mxGeometry x="555" y="130" width="60" height="30" as="geometry" />
        </mxCell>
        <mxCell id="v1i57e1MyZaDkJ1OwCc9-55" value="Phase 5&lt;br&gt;Test" style="text;html=1;strokeColor=none;fillColor=none;align=center;verticalAlign=middle;whiteSpace=wrap;rounded=0;" vertex="1" parent="1">
          <mxGeometry x="710" y="130" width="60" height="30" as="geometry" />
        </mxCell>
        <mxCell id="v1i57e1MyZaDkJ1OwCc9-56" value="Phase 6&lt;br&gt;Product release" style="text;html=1;strokeColor=none;fillColor=none;align=center;verticalAlign=middle;whiteSpace=wrap;rounded=0;" vertex="1" parent="1">
          <mxGeometry x="870" y="130" width="60" height="30" as="geometry" />
        </mxCell>
        <mxCell id="v1i57e1MyZaDkJ1OwCc9-57" value="Phase 7&lt;br&gt;Post Implementation" style="text;html=1;strokeColor=none;fillColor=none;align=center;verticalAlign=middle;whiteSpace=wrap;rounded=0;" vertex="1" parent="1">
          <mxGeometry x="1030" y="130" width="60" height="30" as="geometry" />
        </mxCell>
        <mxCell id="v1i57e1MyZaDkJ1OwCc9-58" value="" style="endArrow=none;html=1;rounded=0;" edge="1" parent="1">
          <mxGeometry width="50" height="50" relative="1" as="geometry">
            <mxPoint x="60" y="110" as="sourcePoint" />
            <mxPoint x="1110" y="110" as="targetPoint" />
          </mxGeometry>
        </mxCell>
        <mxCell id="v1i57e1MyZaDkJ1OwCc9-59" value="" style="endArrow=none;html=1;rounded=0;" edge="1" parent="1">
          <mxGeometry width="50" height="50" relative="1" as="geometry">
            <mxPoint x="60" y="180" as="sourcePoint" />
            <mxPoint x="1110" y="180" as="targetPoint" />
          </mxGeometry>
        </mxCell>
      </root>
    </mxGraphModel>
  </diagram>
</mxfile>
